<?xml version="1.0" encoding="UTF-8" standalone="no"?>
<!-- Created with Inkscape (http://www.inkscape.org/) -->

<svg
   xmlns:dc="http://purl.org/dc/elements/1.1/"
   xmlns:cc="http://creativecommons.org/ns#"
   xmlns:rdf="http://www.w3.org/1999/02/22-rdf-syntax-ns#"
   xmlns:svg="http://www.w3.org/2000/svg"
   xmlns="http://www.w3.org/2000/svg"
   xmlns:sodipodi="http://sodipodi.sourceforge.net/DTD/sodipodi-0.dtd"
   xmlns:inkscape="http://www.inkscape.org/namespaces/inkscape"
   width="640mm"
   height="640mm"
   viewBox="0 0 640.00001 640.00001"
   version="1.1"
   id="svg8"
   sodipodi:docname="offline.svg"
   inkscape:version="0.92.4 (5da689c313, 2019-01-14)">
  <defs
     id="defs2" />
  <sodipodi:namedview
     id="base"
     pagecolor="#ffffff"
     bordercolor="#666666"
     borderopacity="1.0"
     inkscape:pageopacity="0.0"
     inkscape:pageshadow="2"
     inkscape:zoom="0.175"
     inkscape:cx="1052.081"
     inkscape:cy="922.50629"
     inkscape:document-units="mm"
     inkscape:current-layer="layer1"
     showgrid="false"
     units="mm"
     inkscape:window-width="958"
     inkscape:window-height="1048"
     inkscape:window-x="-7"
     inkscape:window-y="0"
     inkscape:window-maximized="0" />
  <metadata
     id="metadata5">
    <rdf:RDF>
      <cc:Work
         rdf:about="">
        <dc:format>image/svg+xml</dc:format>
        <dc:type
           rdf:resource="http://purl.org/dc/dcmitype/StillImage" />
        <dc:title></dc:title>
      </cc:Work>
    </rdf:RDF>
  </metadata>
  <g
     inkscape:label="レイヤー 1"
     inkscape:groupmode="layer"
     id="layer1"
     transform="translate(0,342.99999)">
    <path
       style="fill:#747f8d;fill-opacity:1;stroke-width:1.89188564"
       d="M 1209.4492 0 A 1209.4488 1209.4488 0 0 0 0 1209.4492 A 1209.4488 1209.4488 0 0 0 1209.4492 2418.8984 A 1209.4488 1209.4488 0 0 0 2418.8984 1209.4492 A 1209.4488 1209.4488 0 0 0 1209.4492 0 z M 1209.4492 604.72461 A 604.72441 604.72441 0 0 1 1814.1738 1209.4492 A 604.72441 604.72441 0 0 1 1209.4492 1814.1738 A 604.72441 604.72441 0 0 1 604.72461 1209.4492 A 604.72441 604.72441 0 0 1 1209.4492 604.72461 z "
       transform="matrix(0.26458333,0,0,0.26458333,0,-342.99999)"
       id="path10" />
  </g>
</svg>
